<svg width="26" height="27" viewBox="0 0 26 27" fill="none" xmlns="http://www.w3.org/2000/svg">
<path d="M1.34766 9.8841H24.8259M1.34766 9.8841V21.5752C1.34766 23.0632 1.34766 23.8069 1.66753 24.3753C1.9489 24.8752 2.39753 25.2821 2.94975 25.5368C3.57692 25.8261 4.39835 25.8261 6.03877 25.8261H20.1355C21.7759 25.8261 22.5962 25.8261 23.2234 25.5368C23.7756 25.2821 24.225 24.8752 24.5064 24.3753C24.8259 23.8074 24.8259 23.0648 24.8259 21.5797V9.8841M1.34766 9.8841V8.82156C1.34766 7.3335 1.34766 6.58891 1.66753 6.02055C1.9489 5.5206 2.39753 5.11442 2.94975 4.85969C3.57753 4.57009 4.39996 4.57009 6.04359 4.57009H7.21722M24.8259 9.8841V8.81719C24.8259 7.33204 24.8259 6.58835 24.5064 6.02055C24.225 5.5206 23.7756 5.11442 23.2234 4.85969C22.5956 4.57009 21.7742 4.57009 20.1306 4.57009H18.9564M7.21722 4.57009H18.9564M7.21722 4.57009V1.91309M18.9564 4.57009V1.91309M16.7553 17.8551H13.0868M13.0868 17.8551H9.41831M13.0868 17.8551V14.5339M13.0868 17.8551V21.1764" stroke="black" stroke-width="2" stroke-linecap="round" stroke-linejoin="round"/>
</svg>
