<svg width="24" height="24" viewBox="0 0 24 24" fill="none" xmlns="http://www.w3.org/2000/svg">
<g id="Iconly/Two-tone/Bag">
<g id="Bag">
<path id="Path_33955" fill-rule="evenodd" clip-rule="evenodd" d="M17.0137 22H8.66592C5.59955 22 3.24715 20.8925 3.91534 16.4348L4.69338 10.3936C5.10528 8.16937 6.52404 7.31812 7.76889 7.31812H17.9474C19.2105 7.31812 20.5469 8.23345 21.0229 10.3936L21.8009 16.4348C22.3684 20.3891 20.0801 22 17.0137 22Z" stroke="#8F95B2" stroke-width="1.5" stroke-linecap="round" stroke-linejoin="round"/>
<path id="Path_33956" d="M17.151 7.09848C17.151 4.71241 15.2167 2.77812 12.8306 2.77812V2.77812C11.6816 2.77325 10.578 3.22628 9.76381 4.03703C8.94963 4.84778 8.49193 5.94947 8.49194 7.09848V7.09848" stroke="#8F95B2" stroke-width="1.5" stroke-linecap="round" stroke-linejoin="round"/>
<path id="Line_192" d="M15.7963 11.602H15.7506" stroke="#8F95B2" stroke-width="1.5" stroke-linecap="round" stroke-linejoin="round"/>
<path id="Line_193" d="M9.96566 11.602H9.91989" stroke="#8F95B2" stroke-width="1.5" stroke-linecap="round" stroke-linejoin="round"/>
</g>
</g>
</svg>
