<svg width="13" height="15" viewBox="0 0 13 15" fill="none" xmlns="http://www.w3.org/2000/svg">
<path d="M10.9137 9.74795C10.8751 9.69436 10.8371 9.64078 10.7998 9.58906C10.2871 8.87607 9.977 8.44575 9.977 6.42733C9.977 5.38236 9.75959 4.52494 9.33106 3.88187C9.01509 3.40681 8.58796 3.04643 8.02499 2.78009C8.01774 2.77546 8.01127 2.76938 8.00588 2.76214C7.80338 1.98243 7.24926 1.46021 6.6243 1.46021C5.99934 1.46021 5.44545 1.98243 5.24296 2.76134C5.23755 2.76831 5.23118 2.7742 5.22408 2.77875C3.91032 3.40065 3.27184 4.5938 3.27184 6.42653C3.27184 8.44575 2.96216 8.87607 2.44905 9.58826C2.41176 9.63997 2.37378 9.69249 2.3351 9.74715C2.23518 9.88571 2.17188 10.0543 2.15267 10.2329C2.13347 10.4116 2.15918 10.5928 2.22675 10.7551C2.37052 11.1035 2.67694 11.3197 3.0267 11.3197H10.2245C10.5726 11.3197 10.8769 11.1037 11.0212 10.757C11.089 10.5946 11.115 10.4132 11.0959 10.2344C11.0769 10.0556 11.0137 9.88674 10.9137 9.74795V9.74795Z" fill="#4FD1C5"/>
<path d="M6.62426 13.4641C6.96099 13.4638 7.29136 13.3587 7.58034 13.1599C7.86932 12.9612 8.10613 12.6762 8.26566 12.3353C8.27317 12.3189 8.27689 12.3006 8.27643 12.2821C8.27598 12.2637 8.27138 12.2456 8.26308 12.2298C8.25478 12.214 8.24306 12.2009 8.22905 12.1918C8.21505 12.1827 8.19924 12.178 8.18317 12.178H5.06583C5.04973 12.1779 5.03389 12.1826 5.01986 12.1917C5.00582 12.2008 4.99407 12.2139 4.98574 12.2297C4.97741 12.2455 4.97279 12.2636 4.97233 12.2821C4.97187 12.3006 4.97558 12.3189 4.9831 12.3353C5.14261 12.6762 5.37939 12.9611 5.66832 13.1599C5.95726 13.3586 6.28758 13.4637 6.62426 13.4641Z" fill="#4FD1C5"/>
</svg>
