<svg width="13" height="13" viewBox="0 0 13 13" fill="none" xmlns="http://www.w3.org/2000/svg">
<path d="M4.54675 11.1875C4.97823 11.1875 5.328 10.8377 5.328 10.4062C5.328 9.97478 4.97823 9.625 4.54675 9.625C4.11528 9.625 3.7655 9.97478 3.7655 10.4062C3.7655 10.8377 4.11528 11.1875 4.54675 11.1875Z" fill="white"/>
<path d="M10.0156 11.1875C10.4471 11.1875 10.7969 10.8377 10.7969 10.4062C10.7969 9.97478 10.4471 9.625 10.0156 9.625C9.58415 9.625 9.23438 9.97478 9.23438 10.4062C9.23438 10.8377 9.58415 11.1875 10.0156 11.1875Z" fill="white"/>
<path d="M11.4023 3.19897C11.3475 3.13185 11.2783 3.07778 11.1999 3.04071C11.1216 3.00363 11.0359 2.98447 10.9492 2.98462H3.5188L3.36914 2.1355C3.35318 2.04505 3.30586 1.96312 3.2355 1.90409C3.16513 1.84507 3.07622 1.81272 2.98437 1.81274H1.42187C1.31827 1.81274 1.21892 1.8539 1.14566 1.92716C1.0724 2.00041 1.03125 2.09977 1.03125 2.20337C1.03125 2.30697 1.0724 2.40633 1.14566 2.47958C1.21892 2.55284 1.31827 2.59399 1.42187 2.59399H2.65674L3.77148 8.91186C3.78744 9.00231 3.83476 9.08424 3.90513 9.14327C3.97549 9.20229 4.0644 9.23464 4.15625 9.23462H10.4062C10.5098 9.23462 10.6092 9.19346 10.6825 9.12021C10.7557 9.04695 10.7969 8.94759 10.7969 8.84399C10.7969 8.74039 10.7557 8.64103 10.6825 8.56778C10.6092 8.49452 10.5098 8.45337 10.4062 8.45337H4.48389L4.34619 7.67212H10.2461C10.3816 7.67195 10.5128 7.62498 10.6176 7.53916C10.7224 7.45334 10.7944 7.33394 10.8213 7.20117L11.5244 3.68555C11.5414 3.60046 11.5392 3.51268 11.5181 3.42854C11.497 3.34439 11.4574 3.26598 11.4023 3.19897Z" fill="white"/>
</svg>
