<svg width="13" height="14" viewBox="0 0 13 14" fill="none" xmlns="http://www.w3.org/2000/svg">
<path d="M4.76007 12.2148C5.17189 12.2148 5.50573 11.831 5.50573 11.3574C5.50573 10.8839 5.17189 10.5 4.76007 10.5C4.34825 10.5 4.0144 10.8839 4.0144 11.3574C4.0144 11.831 4.34825 12.2148 4.76007 12.2148Z" fill="#4299E1"/>
<path d="M9.97967 12.2148C10.3915 12.2148 10.7253 11.831 10.7253 11.3574C10.7253 10.8839 10.3915 10.5 9.97967 10.5C9.56785 10.5 9.23401 10.8839 9.23401 11.3574C9.23401 11.831 9.56785 12.2148 9.97967 12.2148Z" fill="#4299E1"/>
<path d="M11.3032 3.44741C11.2509 3.37373 11.1849 3.3144 11.1101 3.27371C11.0353 3.23302 10.9535 3.21199 10.8708 3.21215H3.77878L3.63594 2.28025C3.62071 2.18098 3.57555 2.09106 3.50839 2.02628C3.44123 1.9615 3.35636 1.926 3.2687 1.92603H1.77737C1.67849 1.92603 1.58366 1.97119 1.51374 2.05159C1.44382 2.13199 1.40454 2.24103 1.40454 2.35473C1.40454 2.46843 1.44382 2.57748 1.51374 2.65788C1.58366 2.73828 1.67849 2.78344 1.77737 2.78344H2.95599L4.01996 9.71727C4.03519 9.81654 4.08035 9.90646 4.14751 9.97124C4.21467 10.036 4.29954 10.0715 4.3872 10.0715H10.3525C10.4514 10.0715 10.5462 10.0263 10.6161 9.94593C10.6861 9.86553 10.7253 9.75649 10.7253 9.64279C10.7253 9.52908 10.6861 9.42004 10.6161 9.33964C10.5462 9.25924 10.4514 9.21408 10.3525 9.21408H4.69991L4.56849 8.35666H10.1997C10.3289 8.35647 10.4542 8.30492 10.5543 8.21073C10.6543 8.11655 10.723 7.98551 10.7486 7.8398L11.4197 3.98142C11.4359 3.88804 11.4339 3.7917 11.4137 3.69935C11.3936 3.607 11.3558 3.52095 11.3032 3.44741Z" fill="#4299E1"/>
</svg>
