<svg width="13" height="13" viewBox="0 0 13 13" fill="none" xmlns="http://www.w3.org/2000/svg">
<path d="M11.7138 3.19288C11.6857 3.13817 11.6451 3.09088 11.5952 3.05486C11.5453 3.01884 11.4877 2.9951 11.4269 2.98559C11.3661 2.97607 11.304 2.98104 11.2455 3.00009C11.187 3.01914 11.1338 3.05174 11.0903 3.09522L9.59031 4.5962C9.51667 4.66876 9.41744 4.70944 9.31406 4.70944C9.21068 4.70944 9.11145 4.66876 9.03782 4.5962L8.38938 3.94678C8.3531 3.91051 8.32432 3.86744 8.30468 3.82005C8.28504 3.77265 8.27494 3.72185 8.27494 3.67054C8.27494 3.61924 8.28504 3.56843 8.30468 3.52103C8.32432 3.47364 8.3531 3.43057 8.38938 3.39429L9.88303 1.9004C9.92781 1.85563 9.96103 1.80064 9.97984 1.74018C9.99864 1.67972 10.0025 1.61559 9.99098 1.55332C9.9795 1.49106 9.95305 1.43251 9.91392 1.38273C9.87478 1.33296 9.82413 1.29344 9.76633 1.26759C8.63816 0.763192 7.22996 1.02638 6.34202 1.90772C5.58762 2.65675 5.36277 3.82716 5.72556 5.1189C5.74512 5.18779 5.74524 5.26074 5.72589 5.32969C5.70654 5.39863 5.66849 5.46088 5.61594 5.50953L1.55149 9.22169C1.39315 9.36385 1.26544 9.53679 1.17613 9.72994C1.08683 9.92309 1.03781 10.1324 1.03206 10.3451C1.02632 10.5578 1.06397 10.7695 1.14272 10.9672C1.22148 11.1649 1.33967 11.3445 1.49011 11.495C1.64055 11.6455 1.82007 11.7637 2.01772 11.8426C2.21538 11.9214 2.42702 11.9592 2.63974 11.9535C2.85246 11.9479 3.0618 11.8989 3.25499 11.8097C3.44818 11.7205 3.62117 11.5929 3.76341 11.4346L7.51536 7.36109C7.56331 7.30922 7.6245 7.27142 7.69235 7.25176C7.76019 7.2321 7.83211 7.23133 7.90037 7.24952C8.26813 7.35028 8.64748 7.40257 9.02878 7.40504C9.84421 7.40504 10.5598 7.14112 11.0759 6.63258C12.0317 5.69093 12.1775 4.09376 11.7138 3.19288ZM2.67918 11.1672C2.51839 11.1848 2.35611 11.152 2.21475 11.0734C2.07339 10.9948 1.9599 10.8743 1.88997 10.7284C1.82003 10.5826 1.79708 10.4186 1.82429 10.2592C1.8515 10.0997 1.92753 9.95267 2.04188 9.83828C2.15623 9.72388 2.30327 9.6478 2.4627 9.62054C2.62213 9.59327 2.7861 9.61616 2.93197 9.68605C3.07784 9.75593 3.19842 9.86937 3.27707 10.0107C3.35572 10.152 3.38857 10.3143 3.37107 10.4751C3.35182 10.652 3.27275 10.8171 3.14693 10.9429C3.02111 11.0688 2.85609 11.1479 2.67918 11.1672Z" fill="white"/>
</svg>
