<svg width="34" height="29" viewBox="0 0 34 29" fill="none" xmlns="http://www.w3.org/2000/svg">
<path d="M25.8889 28C25.8889 25.0177 21.9092 22.6 17 22.6C12.0908 22.6 8.11111 25.0177 8.11111 28M33 22.6007C33 20.3863 30.8061 18.4833 27.6667 17.65M1 22.6007C1 20.3863 3.19395 18.4833 6.33333 17.65M27.6667 10.425C28.7578 9.43621 29.4444 7.9993 29.4444 6.4C29.4444 3.41766 27.0566 1 24.1111 1C22.7451 1 21.4991 1.51994 20.5556 2.37501M6.33333 10.425C5.24222 9.43621 4.55556 7.9993 4.55556 6.4C4.55556 3.41766 6.94337 1 9.88889 1C11.2549 1 12.5009 1.51994 13.4444 2.37501M17 17.2C14.0545 17.2 11.6667 14.7823 11.6667 11.8C11.6667 8.81766 14.0545 6.4 17 6.4C19.9455 6.4 22.3333 8.81766 22.3333 11.8C22.3333 14.7823 19.9455 17.2 17 17.2Z" stroke="black" stroke-width="2" stroke-linecap="round" stroke-linejoin="round"/>
</svg>
