<svg width="47" height="47" viewBox="0 0 47 47" fill="none" xmlns="http://www.w3.org/2000/svg">
<rect x="19.7852" y="31.1372" width="4.03666" height="4.11761" transform="rotate(45.5126 19.7852 31.1372)" fill="#8B6BAF"/>
<path d="M27.0742 2.91345L24.3327 0L12.0354 12.5987L24.3327 24.6462L36.3951 12.2838L28.7974 4.48829L21.043 12.2838L25.8993 17.2445L24.3327 18.8193L17.9882 12.2838L27.0742 2.91345Z" fill="#434B51"/>
<path d="M9.35785 20.9251L6.31655 18.0544L0 24.249L12.0092 36.1092L22.9267 25.6843L19.7295 22.8137L16.8441 25.6843L15.1285 24.0223L18.0139 21.3028L15.1285 18.3566L9.1239 24.0223L13.7248 28.9327L12.0092 30.2924L5.92664 24.249L9.35785 20.9251Z" fill="#434B51"/>
<path d="M35.2669 21.4453L32.0962 18.3079L37.5657 12.896L46.9986 22.4649L41.6876 27.7984L38.5962 24.7395L40.8949 22.308L37.8035 19.0922L35.2669 21.4453Z" fill="#434B51"/>
<path d="M20.6733 29.8832L23.7549 26.9132L25.8884 28.789L30.1553 24.4902L28.1799 22.5363L31.2616 19.488L36.3977 24.4902L28.9701 31.9935L33.316 36.4486L22.5697 47.0001L17.1965 41.529L20.4362 38.4026L22.8858 40.8255L27.3107 36.4486L20.6733 29.8832Z" fill="#434B51"/>
<rect x="16.1859" y="34.5754" width="4.03666" height="4.11761" transform="rotate(45.5126 16.1859 34.5754)" fill="#8B6BAF"/>
<rect x="37.9114" y="26.1353" width="4.03666" height="4.11761" transform="rotate(45.5126 37.9114 26.1353)" fill="#8B6BAF"/>
<rect x="10.8735" y="13.4771" width="4.03666" height="4.11761" transform="rotate(45.5126 10.8735 13.4771)" fill="#8B6BAF"/>
<rect x="28.6915" y="10.1965" width="2.67703" height="2.54405" transform="rotate(45.5126 28.6915 10.1965)" fill="white"/>
<rect x="34.3121" y="29.5725" width="4.03666" height="4.11761" transform="rotate(45.5126 34.3121 29.5725)" fill="#8B6BAF"/>
</svg>
