<svg width="20" height="21" viewBox="0 0 20 21" fill="none" xmlns="http://www.w3.org/2000/svg">
<path fill-rule="evenodd" clip-rule="evenodd" d="M14.0137 20H5.66592C2.59955 20 0.247152 18.8925 0.915344 14.4348L1.69338 8.39363C2.10528 6.16937 3.52404 5.31812 4.76889 5.31812H14.9474C16.2105 5.31812 17.5469 6.23345 18.0229 8.39363L18.8009 14.4348C19.3684 18.3891 17.0801 20 14.0137 20Z" stroke="white" stroke-width="1.5" stroke-linecap="round" stroke-linejoin="round"/>
<path d="M14.151 5.09848C14.151 2.71241 12.2167 0.778115 9.83062 0.778115V0.778115C8.68162 0.773246 7.578 1.22628 6.76381 2.03703C5.94963 2.84778 5.49193 3.94947 5.49194 5.09848H5.49194" stroke="white" stroke-width="1.5" stroke-linecap="round" stroke-linejoin="round"/>
<path d="M12.7963 9.60195H12.7506" stroke="white" stroke-width="1.5" stroke-linecap="round" stroke-linejoin="round"/>
<path d="M6.96566 9.60195H6.91989" stroke="white" stroke-width="1.5" stroke-linecap="round" stroke-linejoin="round"/>
</svg>
