<svg width="18" height="20" viewBox="0 0 18 20" fill="none" xmlns="http://www.w3.org/2000/svg">
<g id="Paper">
<path id="Fill 3" d="M15.8088 7.021C15.3573 7.021 14.7592 7.011 14.0146 7.011C12.1987 7.011 10.7055 5.508 10.7055 3.675V0.459C10.7055 0.206 10.5036 0 10.253 0H4.96363C2.49517 0 0.5 2.026 0.5 4.509V15.284C0.5 17.889 2.59022 20 5.16958 20H13.0463C15.5058 20 17.5 17.987 17.5 15.502V7.471C17.5 7.217 17.299 7.012 17.0475 7.013C16.6247 7.016 16.1177 7.021 15.8088 7.021Z" fill="#FF0B2D"/>
<path id="Fill 1" d="M13.0839 0.56737C12.7849 0.25637 12.2629 0.47037 12.2629 0.90137V3.53837C12.2629 4.64437 13.1739 5.55437 14.2799 5.55437C14.9769 5.56237 15.9449 5.56437 16.7669 5.56237C17.1879 5.56137 17.4019 5.05837 17.1099 4.75437C16.0549 3.65737 14.1659 1.69137 13.0839 0.56737Z" fill="#FF0B2D"/>
<path id="Combined Shape" fill-rule="evenodd" clip-rule="evenodd" d="M5.97386 9.38768H9.35886C9.76986 9.38768 10.1039 9.05468 10.1039 8.64368C10.1039 8.23268 9.76986 7.89868 9.35886 7.89868H5.97386C5.56286 7.89868 5.22986 8.23268 5.22986 8.64368C5.22986 9.05468 5.56286 9.38768 5.97386 9.38768ZM5.97396 14.3819H11.418C11.829 14.3819 12.163 14.0489 12.163 13.6379C12.163 13.2269 11.829 12.8929 11.418 12.8929H5.97396C5.56296 12.8929 5.22996 13.2269 5.22996 13.6379C5.22996 14.0489 5.56296 14.3819 5.97396 14.3819Z" fill="white"/>
</g>
</svg>
