<svg width="13" height="15" viewBox="0 0 13 15" fill="none" xmlns="http://www.w3.org/2000/svg">
<path d="M1.40454 10.7323C1.40454 11.1302 1.54202 11.5119 1.78674 11.7933C2.03146 12.0747 2.36337 12.2328 2.70945 12.2328H10.5389C10.885 12.2328 11.2169 12.0747 11.4616 11.7933C11.7064 11.5119 11.8438 11.1302 11.8438 10.7323V6.60596H1.40454V10.7323ZM2.94247 8.69591C2.94247 8.48272 3.01612 8.27827 3.14722 8.12752C3.27832 7.97677 3.45613 7.89208 3.64153 7.89208H4.76003C4.94543 7.89208 5.12324 7.97677 5.25434 8.12752C5.38544 8.27827 5.45909 8.48272 5.45909 8.69591V9.2318C5.45909 9.44499 5.38544 9.64945 5.25434 9.80019C5.12324 9.95094 4.94543 10.0356 4.76003 10.0356H3.64153C3.45613 10.0356 3.27832 9.95094 3.14722 9.80019C3.01612 9.64945 2.94247 9.44499 2.94247 9.2318V8.69591Z" fill="#F6AD55"/>
<path d="M10.5389 2.80078H2.70945C2.36337 2.80078 2.03146 2.95887 1.78674 3.24026C1.54202 3.52166 1.40454 3.90331 1.40454 4.30126V4.99791H11.8438V4.30126C11.8438 3.90331 11.7064 3.52166 11.4616 3.24026C11.2169 2.95887 10.885 2.80078 10.5389 2.80078Z" fill="#F6AD55"/>
</svg>
