<svg width="23" height="20" viewBox="0 0 23 20" fill="none" xmlns="http://www.w3.org/2000/svg">
<path fill-rule="evenodd" clip-rule="evenodd" d="M22.5456 0.993507C22.5782 0.843026 22.4356 0.713744 22.289 0.760799L18.8258 1.87248C18.6792 1.91954 18.6385 2.10764 18.7526 2.21106L21.4469 4.65449C21.561 4.75792 21.7442 4.6991 21.7768 4.54862L22.5456 0.993507ZM7.46305 15.1416C8.27558 14.7595 8.56663 13.8947 8.70575 13.1855C8.82654 12.5697 8.8728 11.8365 8.91676 11.1397L8.91678 11.1395C8.92589 10.995 8.93491 10.8521 8.94447 10.7122C9.00302 9.85511 9.08244 9.07229 9.28316 8.43927C9.48061 7.81653 9.76042 7.44734 10.15 7.26415C10.5559 7.07331 11.0023 7.08966 11.562 7.30206C12.1412 7.52183 12.7486 7.91613 13.4213 8.37361L13.6021 8.49695C14.1926 8.90013 14.8398 9.34203 15.4706 9.62671C16.1745 9.94442 17.0209 10.1425 17.859 9.74845C18.9976 9.21306 19.4046 8.24531 19.675 7.54374C19.6976 7.485 19.7189 7.42907 19.7393 7.37565L19.7394 7.3756C19.8499 7.08574 19.9324 6.86973 20.0402 6.68058C20.154 6.4811 20.2626 6.37668 20.396 6.31392C20.7709 6.13766 20.9319 5.69091 20.7556 5.31606C20.5794 4.94122 20.1326 4.78024 19.7578 4.95649C19.2613 5.18992 18.9509 5.56273 18.7372 5.93754C18.5665 6.23688 18.4366 6.57958 18.3286 6.86451L18.3286 6.86455L18.3285 6.86471C18.3102 6.9131 18.2925 6.95983 18.2753 7.00439C18.0182 7.67163 17.7866 8.12495 17.2207 8.39103C16.9649 8.51134 16.6267 8.5028 16.0877 8.25951C15.5841 8.03222 15.0479 7.66683 14.4276 7.24416L14.2648 7.13328C13.6098 6.68778 12.8632 6.19145 12.0942 5.89964C11.3059 5.60047 10.4101 5.48431 9.51173 5.90673C8.59714 6.33678 8.11797 7.15123 7.85331 7.9859C7.59192 8.81029 7.50611 9.75866 7.44796 10.61C7.43692 10.7715 7.42687 10.929 7.41708 11.0824L7.41707 11.0826C7.37274 11.7773 7.33385 12.3867 7.2338 12.8967C7.10494 13.5537 6.92818 13.7355 6.82476 13.7842C6.46022 13.9556 6.20094 13.9942 5.99768 13.9906C5.77832 13.9867 5.58009 13.935 5.28871 13.8527L5.25784 13.844C4.98775 13.7676 4.62808 13.6659 4.21139 13.6555C3.76023 13.6443 3.27981 13.7381 2.73546 13.9941C1.55472 14.5493 0.947569 15.7512 0.635587 16.6478C0.472691 17.116 0.372861 17.5513 0.313543 17.8685C0.283732 18.028 0.26377 18.1596 0.251077 18.2533C0.244724 18.3002 0.240171 18.3377 0.237104 18.3646L0.233574 18.3968L0.232567 18.4066L0.23224 18.4099L0.232119 18.4112L0.232069 18.4117C0.232047 18.4119 0.232026 18.4122 0.978659 18.4831L0.232026 18.4122C0.192819 18.8245 0.495315 19.1906 0.907668 19.2298C1.31989 19.269 1.68586 18.9667 1.72526 18.5545L5.72786 15.4759C5.80642 15.4837 5.88756 15.4889 5.97107 15.4903C6.42601 15.4984 6.91164 15.4009 7.46305 15.1416ZM5.42861 15.4323L8.70575 13.1855L5.72786 15.4759C5.62338 15.4655 5.52347 15.4502 5.42861 15.4323ZM5.42861 15.4323L1.83962 17.8929C1.88949 17.6699 1.95847 17.4104 2.05228 17.1408C2.32981 16.3431 2.76063 15.6398 3.37374 15.3515C3.72632 15.1857 3.97653 15.1501 4.17406 15.1551C4.38997 15.1604 4.58544 15.2129 4.88126 15.2963L4.89825 15.3011C5.04927 15.3438 5.2276 15.3942 5.42861 15.4323ZM1.83962 17.8929L0.978659 18.4831C1.72529 18.5541 1.72527 18.5543 1.72526 18.5545L1.72529 18.5541L1.72547 18.5525L1.72743 18.5347C1.72937 18.5177 1.73263 18.4906 1.73749 18.4547C1.74723 18.3829 1.76332 18.2762 1.78799 18.1443C1.80231 18.0677 1.81939 17.9833 1.83962 17.8929Z" fill="url(#paint0_linear_89_261)"/>
<defs>
<linearGradient id="paint0_linear_89_261" x1="11.3895" y1="30.5073" x2="-8.32066" y2="-16.2324" gradientUnits="userSpaceOnUse">
<stop stop-color="#E72547"/>
<stop offset="1" stop-color="#7A0108"/>
</linearGradient>
</defs>
</svg>
