<svg width="13" height="13" viewBox="0 0 13 13" fill="none" xmlns="http://www.w3.org/2000/svg">
<path d="M11.9112 1.18465C11.9068 1.16306 11.8962 1.14319 11.8809 1.12736C11.8655 1.11154 11.846 1.10041 11.8246 1.0953C10.3946 0.745689 7.09067 1.99154 5.30063 3.78084C4.98137 4.09753 4.69031 4.44144 4.43076 4.80868C3.87876 4.75985 3.32676 4.80062 2.8563 5.0057C1.52891 5.58993 1.14243 7.11434 1.03477 7.7701C1.02866 7.80599 1.03096 7.84281 1.0415 7.87766C1.05203 7.91252 1.0705 7.94445 1.09547 7.97095C1.12043 7.99745 1.15121 8.0178 1.18537 8.0304C1.21953 8.04299 1.25614 8.04749 1.29234 8.04354L3.42393 7.80843C3.42545 7.96914 3.43515 8.12966 3.45298 8.28939C3.46371 8.4003 3.51294 8.50396 3.59214 8.58236L4.41758 9.40584C4.49605 9.48494 4.59966 9.53415 4.71055 9.545C4.86938 9.56277 5.02901 9.57246 5.18882 9.57405L4.95493 11.703C4.95103 11.7391 4.95556 11.7757 4.96818 11.8099C4.98079 11.844 5.00114 11.8748 5.02763 11.8997C5.05412 11.9247 5.08603 11.9431 5.12086 11.9537C5.15569 11.9642 5.19248 11.9666 5.22837 11.9605C5.88291 11.8555 7.41001 11.4691 7.99082 10.1417C8.1959 9.67122 8.23789 9.12191 8.19053 8.57259C8.55865 8.31303 8.90346 8.02189 9.22104 7.70247C11.0167 5.91585 12.2555 2.68563 11.9112 1.18465ZM7.42954 5.57113C7.26557 5.40727 7.15389 5.19846 7.10861 4.97112C7.06333 4.74378 7.08649 4.50811 7.17516 4.29393C7.26384 4.07976 7.41404 3.89669 7.60677 3.76789C7.7995 3.63909 8.0261 3.57034 8.25791 3.57034C8.48972 3.57034 8.71632 3.63909 8.90905 3.76789C9.10178 3.89669 9.25198 4.07976 9.34065 4.29393C9.42933 4.50811 9.45249 4.74378 9.40721 4.97112C9.36193 5.19846 9.25024 5.40727 9.08628 5.57113C8.97755 5.68001 8.84842 5.76639 8.70629 5.82532C8.56415 5.88426 8.41178 5.91459 8.25791 5.91459C8.10404 5.91459 7.95167 5.88426 7.80953 5.82532C7.66739 5.76639 7.53827 5.68001 7.42954 5.57113Z" fill="white"/>
<path d="M4.36139 10.0022C4.2276 10.1362 4.013 10.1885 3.7547 10.2332C3.17438 10.332 2.66193 9.83057 2.76617 9.2439C2.80597 9.02148 2.92364 8.70972 2.99689 8.63648C3.0129 8.62078 3.02355 8.60043 3.02734 8.57833C3.03113 8.55623 3.02786 8.5335 3.01799 8.51336C3.00813 8.49323 2.99217 8.47671 2.97238 8.46616C2.9526 8.45561 2.92999 8.45156 2.90778 8.45459C2.58325 8.4943 2.28134 8.64143 2.05011 8.87256C1.47614 9.44702 1.42194 11.5786 1.42194 11.5786C1.42194 11.5786 3.55475 11.5244 4.12872 10.95C4.36057 10.7189 4.50789 10.4165 4.54694 10.0916C4.55597 9.9895 4.4317 9.92871 4.36139 10.0022Z" fill="white"/>
</svg>
