<svg width="36" height="33" viewBox="0 0 36 33" fill="none" xmlns="http://www.w3.org/2000/svg">
<path d="M32.2004 11.4412L31.5776 11.1062C31.4809 11.0542 31.4333 11.0281 31.3866 11.001C30.9222 10.7321 30.5307 10.3605 30.2451 9.91592C30.2163 9.87118 30.1892 9.82427 30.1338 9.73156C30.0785 9.63896 30.0505 9.59204 30.0247 9.54559C29.7685 9.08307 29.6299 8.56763 29.6216 8.04301C29.6208 7.99027 29.621 7.93638 29.6228 7.82925L29.635 7.13007C29.6545 6.01121 29.6642 5.45005 29.5016 4.94643C29.3571 4.4991 29.1154 4.08707 28.7927 3.73741C28.4279 3.34217 27.9229 3.06019 26.9118 2.49695L26.072 2.02911C25.0638 1.46744 24.5595 1.18651 24.0243 1.07941C23.5507 0.984665 23.062 0.989055 22.5902 1.09146C22.0577 1.20703 21.5597 1.49528 20.5643 2.07145L20.5587 2.07406L19.957 2.42238C19.8618 2.47746 19.8136 2.50523 19.766 2.53086C19.2927 2.78523 18.7644 2.92588 18.2232 2.94268C18.1686 2.94437 18.1131 2.94437 18.0022 2.94437C17.8919 2.94437 17.8341 2.94437 17.7796 2.94268C17.2373 2.92581 16.7078 2.78439 16.2339 2.52897C16.1861 2.50322 16.1388 2.47524 16.0435 2.41991L15.4379 2.06844C14.4358 1.48682 13.9339 1.19556 13.3984 1.07941C12.9247 0.976654 12.4343 0.97381 11.9591 1.06978C11.4224 1.17814 10.918 1.46115 9.90922 2.02718L9.90473 2.02911L9.07538 2.49445L9.0662 2.49987C8.06648 3.0608 7.56541 3.34195 7.20366 3.73558C6.88264 4.08489 6.64269 4.49627 6.49907 4.94242C6.33674 5.44672 6.34539 6.00909 6.36495 7.13322L6.3771 7.8314C6.37894 7.93713 6.38213 7.98967 6.38134 8.04167C6.37329 8.56736 6.23285 9.08385 5.97586 9.54719C5.95044 9.59302 5.92306 9.63884 5.86837 9.73037C5.81364 9.82197 5.78714 9.86751 5.75876 9.91172C5.47182 10.3587 5.07858 10.7324 4.61123 11.0018C4.565 11.0285 4.51628 11.0541 4.42055 11.1054L3.80566 11.4348C2.78259 11.9829 2.27118 12.2572 1.89905 12.6475C1.56985 12.9928 1.32116 13.4024 1.16936 13.8485C0.997759 14.3528 0.997904 14.9182 1.00056 16.049L1.00273 16.9731C1.00537 18.0963 1.00899 18.6576 1.18097 19.1584C1.33313 19.6015 1.58 20.0087 1.90736 20.3519C2.27738 20.7398 2.78371 21.0124 3.79901 21.5585L4.40843 21.8862C4.51214 21.942 4.56433 21.9695 4.61435 21.9986C5.07746 22.2682 5.46761 22.641 5.75212 23.0854C5.78285 23.1334 5.81236 23.1832 5.87136 23.2829C5.92963 23.3813 5.95944 23.4305 5.98639 23.4798C6.23583 23.9363 6.36939 24.4436 6.37849 24.9599C6.37947 25.0156 6.37863 25.0721 6.37665 25.1855L6.36495 25.8555C6.34525 26.9835 6.33667 27.5481 6.49997 28.0538C6.64443 28.5011 6.88588 28.9131 7.20864 29.2628C7.57347 29.6581 8.07925 29.9398 9.09033 30.5031L9.92995 30.9708C10.9382 31.5325 11.4421 31.8131 11.9774 31.9202C12.4509 32.015 12.9399 32.0113 13.4117 31.9089C13.945 31.7931 14.4447 31.5039 15.4429 30.9261L16.0446 30.5778C16.1398 30.5227 16.188 30.495 16.2357 30.4694C16.709 30.215 17.2368 30.0736 17.778 30.0568C17.8325 30.0551 17.888 30.0551 17.999 30.0551C18.1102 30.0551 18.1656 30.0551 18.2202 30.0568C18.7626 30.0737 19.2936 30.2156 19.7676 30.471C19.8093 30.4935 19.8511 30.5177 19.9245 30.5604L20.5642 30.9316C21.5665 31.5133 22.0672 31.8037 22.6028 31.9199C23.0765 32.0226 23.5673 32.0268 24.0425 31.9309C24.579 31.8225 25.0844 31.5389 26.0927 30.9732L26.9345 30.5009C27.9349 29.9396 28.4365 29.6582 28.7984 29.2644C29.1194 28.9151 29.3596 28.5039 29.5033 28.0578C29.6644 27.5571 29.6547 26.9991 29.6354 25.8912L29.6228 25.1686C29.621 25.0629 29.6208 25.0103 29.6216 24.9583C29.6296 24.4326 29.7677 23.9157 30.0247 23.4524C30.0501 23.4066 30.0777 23.3604 30.1322 23.2692C30.1869 23.1776 30.2153 23.132 30.2437 23.0878C30.5306 22.6408 30.9242 22.2667 31.3916 21.9973C31.4373 21.971 31.4843 21.9458 31.5777 21.8958L31.5809 21.8943L32.1958 21.5649C33.2189 21.0168 33.7313 20.7422 34.1034 20.3519C34.4326 20.0066 34.681 19.5976 34.8328 19.1515C35.0034 18.6502 35.002 18.088 34.9994 16.9705L34.9972 16.0265C34.9945 14.9033 34.9931 14.3421 34.8211 13.8413C34.669 13.3982 34.4207 12.991 34.0934 12.6478C33.7237 12.2602 33.2167 11.9875 32.2033 11.4426L32.2004 11.4412Z" stroke="black" stroke-width="2" stroke-linecap="round" stroke-linejoin="round"/>
<path d="M11.1979 16.5001C11.1979 20.1322 14.2435 23.0765 18.0005 23.0765C21.7575 23.0765 24.8032 20.1322 24.8032 16.5001C24.8032 12.8681 21.7575 9.9237 18.0005 9.9237C14.2435 9.9237 11.1979 12.8681 11.1979 16.5001Z" stroke="black" stroke-width="2" stroke-linecap="round" stroke-linejoin="round"/>
</svg>
