<svg width="14" height="14" viewBox="0 0 14 14" fill="none" xmlns="http://www.w3.org/2000/svg">
<path d="M8.5 5.55556V10.6111M5.5 5.55556V10.6111M2.5 2.66667V11.1889C2.5 11.9979 2.5 12.4021 2.66349 12.711C2.8073 12.9828 3.0366 13.2042 3.31885 13.3427C3.6394 13.5 4.05925 13.5 4.89768 13.5H9.10232C9.94075 13.5 10.36 13.5 10.6805 13.3427C10.9628 13.2042 11.1929 12.9828 11.3367 12.711C11.5 12.4024 11.5 11.9985 11.5 11.1911V2.66667M2.5 2.66667H4M2.5 2.66667H1M4 2.66667H10M4 2.66667C4 1.99364 4 1.65729 4.11418 1.39185C4.26642 1.03792 4.55824 0.756554 4.92578 0.609952C5.20144 0.5 5.55109 0.5 6.25 0.5H7.75C8.44891 0.5 8.79837 0.5 9.07402 0.609952C9.44157 0.756554 9.7335 1.03792 9.88574 1.39185C9.99992 1.65729 10 1.99364 10 2.66667M10 2.66667H11.5M11.5 2.66667H13" stroke="white" stroke-linecap="round" stroke-linejoin="round"/>
</svg>
