<svg width="13" height="13" viewBox="0 0 13 13" fill="none" xmlns="http://www.w3.org/2000/svg">
<path d="M2.58154 2.78788H10.394C10.4853 2.78784 10.5765 2.79363 10.667 2.80522C10.6363 2.58983 10.5623 2.38289 10.4495 2.19686C10.3367 2.01084 10.1873 1.8496 10.0105 1.72284C9.8337 1.59609 9.63303 1.50646 9.42063 1.45936C9.20823 1.41226 8.98849 1.40866 8.77466 1.44877L2.34961 2.5457H2.34228C1.93898 2.62282 1.58034 2.851 1.3396 3.18363C1.70229 2.92566 2.13646 2.78731 2.58154 2.78788V2.78788Z" fill="white"/>
<path d="M10.394 3.375H2.58154C2.16728 3.37545 1.77012 3.54022 1.47719 3.83315C1.18426 4.12607 1.0195 4.52324 1.01904 4.9375V9.625C1.0195 10.0393 1.18426 10.4364 1.47719 10.7294C1.77012 11.0223 2.16728 11.187 2.58154 11.1875H10.394C10.8083 11.187 11.2055 11.0223 11.4984 10.7294C11.7913 10.4364 11.9561 10.0393 11.9565 9.625V4.9375C11.9561 4.52324 11.7913 4.12607 11.4984 3.83315C11.2055 3.54022 10.8083 3.37545 10.394 3.375V3.375ZM9.23437 8.0625C9.07986 8.0625 8.92881 8.01668 8.80033 7.93083C8.67186 7.84499 8.57172 7.72298 8.51259 7.58022C8.45346 7.43747 8.43799 7.28038 8.46813 7.12883C8.49828 6.97729 8.57269 6.83808 8.68195 6.72882C8.79121 6.61956 8.93041 6.54516 9.08196 6.51501C9.23351 6.48487 9.39059 6.50034 9.53334 6.55947C9.6761 6.6186 9.79811 6.71873 9.88396 6.84721C9.9698 6.97569 10.0156 7.12673 10.0156 7.28125C10.0156 7.48845 9.93331 7.68716 9.7868 7.83368C9.64029 7.98019 9.44157 8.0625 9.23437 8.0625Z" fill="white"/>
<path d="M1.03125 6.58398V4.15478C1.03125 3.62573 1.32422 2.73877 2.34106 2.54663C3.2041 2.38477 4.05859 2.38477 4.05859 2.38477C4.05859 2.38477 4.62012 2.77539 4.15625 2.77539C3.69238 2.77539 3.70459 3.37353 4.15625 3.37353C4.60791 3.37353 4.15625 3.94727 4.15625 3.94727L2.3374 6.01025L1.03125 6.58398Z" fill="white"/>
</svg>
