<svg width="13" height="13" viewBox="0 0 13 13" fill="none" xmlns="http://www.w3.org/2000/svg">
<path d="M2.30208 0H10.6979C11.9708 0 13 1.05556 13 2.36111V10.6389C13 11.9444 11.9708 13 10.6979 13H2.30208C1.02917 13 0 11.9444 0 10.6389V2.36111C0 1.05556 1.02917 0 2.30208 0Z" fill="#470137"/>
<path d="M5.90418 5.05707L4.62046 6.94028L5.98976 8.93763C5.99832 8.95284 6.0026 8.96806 5.99832 8.98328C5.99404 8.9985 5.97693 8.98708 5.95125 8.99089H4.97135C4.90288 8.99089 4.85581 8.98708 4.82586 8.94904C4.736 8.78925 4.64186 8.63327 4.552 8.47348C4.46214 8.3175 4.36372 8.15771 4.26102 7.99412C4.15833 7.83052 4.05563 7.66693 3.95293 7.49954H3.94437C3.85451 7.66313 3.75609 7.82672 3.65768 7.99031C3.55926 8.1539 3.46084 8.3175 3.3667 8.47728C3.26828 8.63707 3.16986 8.80066 3.07144 8.95665C3.05433 8.99469 3.0201 8.9985 2.97303 8.9985H2.03163C2.01452 8.9985 2.00168 9.00611 2.00168 8.98708C1.9974 8.97187 2.00168 8.95665 2.01024 8.94523L3.34102 7.00495L2.04447 5.05326C2.03163 5.03804 2.02735 5.02283 2.03591 5.01522C2.04447 5.0038 2.06159 5 2.0787 5H3.05005C3.07144 5 3.09284 5.0038 3.10996 5.00761C3.12707 5.01522 3.13991 5.02663 3.15275 5.04185C3.23405 5.20544 3.32819 5.36903 3.42661 5.53263C3.5293 5.69622 3.62772 5.85601 3.7347 6.01579C3.8374 6.17558 3.93154 6.33537 4.0214 6.49896H4.02995C4.11981 6.33156 4.21395 6.16797 4.30809 6.00818C4.40223 5.8484 4.50065 5.68861 4.59907 5.52882C4.69749 5.36903 4.79163 5.20544 4.88577 5.04946C4.89004 5.03424 4.8986 5.01902 4.91144 5.01141C4.92856 5.0038 4.94567 5 4.96707 5.0038H5.86995C5.89135 5 5.91274 5.01141 5.91702 5.03044C5.9213 5.03424 5.91274 5.04946 5.90418 5.05707Z" fill="#FF61F6"/>
<path d="M9.25142 8.9998C8.85572 9.00412 8.46002 8.93931 8.10175 8.80536C7.76487 8.68006 7.48681 8.47266 7.2943 8.21774C7.09645 7.95417 7.0002 7.62579 7.0002 7.2326C6.99485 6.91287 7.09645 6.59745 7.2943 6.32092C7.4975 6.04007 7.7916 5.80675 8.14453 5.6512C8.51884 5.48269 8.96802 5.4006 9.4974 5.4006C9.52414 5.4006 9.56157 5.4006 9.6097 5.40492C9.65782 5.40924 9.71129 5.40924 9.77546 5.41356V4.0482C9.77546 4.01795 9.7915 4.00067 9.82894 4.00067H10.9144C10.9412 3.99635 10.9626 4.01363 10.9679 4.03092C10.9679 4.03524 10.9679 4.03956 10.9679 4.03956V8.15293C10.9679 8.2307 10.9733 8.31712 10.9786 8.41217C10.9893 8.50291 10.9947 8.58932 11 8.66278C11 8.69302 10.984 8.71895 10.9465 8.73191C10.6685 8.82697 10.3744 8.8961 10.0749 8.93931C9.8022 8.97819 9.52948 8.9998 9.25142 8.9998ZM9.77546 8.13564V6.23451C9.72734 6.22587 9.67921 6.21722 9.63108 6.2129C9.57226 6.20858 9.51344 6.20426 9.45462 6.20426C9.24608 6.20426 9.03753 6.23883 8.85037 6.3166C8.66857 6.39005 8.51349 6.49807 8.39585 6.63634C8.27821 6.7746 8.21939 6.9604 8.21939 7.18508C8.21404 7.3363 8.24613 7.48753 8.3103 7.63012C8.36377 7.74678 8.44398 7.85047 8.55092 7.93689C8.65252 8.01466 8.77551 8.07515 8.91454 8.10972C9.05892 8.14861 9.20865 8.16589 9.35837 8.16589C9.43858 8.16589 9.51344 8.16157 9.58296 8.15725C9.65247 8.16157 9.71129 8.15293 9.77546 8.13564Z" fill="#FF61F6"/>
</svg>
