<svg width="23" height="18" viewBox="0 0 23 18" fill="none" xmlns="http://www.w3.org/2000/svg">
<path fill-rule="evenodd" clip-rule="evenodd" d="M22.5464 0.648916C22.5786 0.496544 22.4374 0.36536 22.2925 0.413007L18.8212 1.55443C18.6766 1.602 18.6368 1.79216 18.7495 1.89688L19.6519 2.73517C19.2181 2.97634 18.9382 3.32984 18.7414 3.68346C18.5709 3.98974 18.4412 4.34026 18.3332 4.63215L18.3329 4.63292C18.3146 4.6823 18.297 4.73 18.2799 4.77552C18.022 5.46117 17.7902 5.92407 17.227 6.19533C16.9742 6.3171 16.6367 6.30989 16.0946 6.05927C15.5899 5.82591 15.0526 5.45082 14.4326 5.01806L14.2696 4.90429C13.6145 4.44793 12.8693 3.94045 12.1018 3.6421C11.3158 3.33658 10.4192 3.21635 9.51803 3.65043C8.60052 4.09238 8.12187 4.92817 7.85808 5.7804C7.59719 6.62328 7.51147 7.59311 7.45333 8.465C7.44231 8.63016 7.43228 8.79131 7.4225 8.94828L7.42248 8.94863C7.37815 9.66035 7.33917 10.2861 7.23891 10.8096C7.10929 11.4865 6.93134 11.6717 6.83106 11.72C6.46769 11.895 6.2094 11.9344 6.00656 11.9308C5.78713 11.9268 5.58855 11.8737 5.29694 11.7894L5.26598 11.7805C4.9961 11.7023 4.63681 11.5982 4.22028 11.5875C3.76874 11.576 3.28731 11.6723 2.74176 11.9351C1.5582 12.5052 0.951407 13.7378 0.640266 14.6539C0.477579 15.1329 0.377896 15.5782 0.318678 15.9026C0.288917 16.0656 0.268996 16.2002 0.256334 16.2959C0.249997 16.3438 0.245459 16.3821 0.242404 16.4095L0.238891 16.4424L0.237893 16.4524L0.23757 16.4557L0.237451 16.457L0.237402 16.4575C0.23738 16.4578 0.23736 16.458 0.978695 16.5199L0.23736 16.458C0.19877 16.8737 0.499394 17.2385 0.908822 17.2727C1.31802 17.307 1.68104 16.998 1.71996 16.5826L1.71999 16.5823L5.72375 13.4269C5.80084 13.4347 5.88041 13.4397 5.96227 13.4412C6.41762 13.4495 6.90424 13.3494 7.45682 13.0832C8.2725 12.6903 8.56235 11.8033 8.70071 11.0807C8.82129 10.4511 8.86746 9.70144 8.91143 8.98765V8.98764C8.92056 8.83948 8.92959 8.69286 8.93917 8.54918C8.99773 7.67103 9.07725 6.86745 9.27846 6.21737C9.47678 5.57665 9.75711 5.19993 10.1438 5.01367C10.5468 4.81954 10.9924 4.83505 11.5546 5.05358C12.1352 5.27929 12.7439 5.68416 13.4166 6.15281L13.5974 6.27911C14.1881 6.69224 14.8341 7.1441 15.4637 7.43519C16.1646 7.75926 17.0116 7.96374 17.8528 7.55857C18.9941 7.00881 19.4009 6.01598 19.6705 5.29944C19.6929 5.23986 19.714 5.18307 19.7343 5.1288L19.7348 5.12735C19.8454 4.83038 19.928 4.60855 20.0361 4.4144C20.1502 4.20934 20.2584 4.10356 20.3898 4.04027C20.5345 3.97056 20.6476 3.86008 20.7216 3.72897L21.4501 4.40568C21.5628 4.51041 21.7437 4.45125 21.7758 4.29914L22.5464 0.648916ZM5.43098 13.3839C5.52392 13.4016 5.62166 13.4166 5.72375 13.4269L8.70071 11.0807L5.43098 13.3839ZM5.43098 13.3839C5.22568 13.3446 5.04383 13.292 4.89023 13.2476L4.8731 13.2426C4.57709 13.157 4.38126 13.1032 4.16524 13.0977C3.9681 13.0927 3.71889 13.1291 3.36752 13.2983C2.75723 13.5923 2.32604 14.3113 2.04768 15.1308C1.95137 15.4144 1.88118 15.6871 1.83095 15.9196L0.978695 16.5199C1.72003 16.5819 1.72001 16.5821 1.71999 16.5823L1.72003 16.5819L1.72023 16.58L1.7222 16.5617C1.72415 16.5441 1.72743 16.5163 1.7323 16.4794C1.74208 16.4055 1.75821 16.296 1.78292 16.1606C1.79639 16.0868 1.81229 16.006 1.83095 15.9196L5.43098 13.3839Z" fill="url(#paint0_linear_89_273)"/>
<defs>
<linearGradient id="paint0_linear_89_273" x1="32.1508" y1="-1.27784" x2="-2.915" y2="-12.8021" gradientUnits="userSpaceOnUse">
<stop stop-color="#EBBB3C"/>
<stop offset="1" stop-color="#FFC930"/>
</linearGradient>
</defs>
</svg>
